<?xml version="1.0" encoding="utf-8"?>
<!-- Generator: Adobe Illustrator 27.8.1, SVG Export Plug-In . SVG Version: 6.00 Build 0)  -->
<svg version="1.1" id="레이어_1" xmlns="http://www.w3.org/2000/svg" xmlns:xlink="http://www.w3.org/1999/xlink" x="0px"
	 y="0px" viewBox="0 0 1264 554" style="enable-background:new 0 0 1264 554;" xml:space="preserve">
<style type="text/css">
	.st0{fill:#87CCCB;}
	.st1{fill:#B8E5E0;}
</style>
<g>
	<g>
		<path class="st0" d="M0.7,478.7h86.4v-80.5c-18.3-6.9-32.9-18.6-43.9-35.1c-11-16.5-16.4-39.2-16.4-68c0-20.4,2.9-37.7,8.8-52
			c5.9-14.2,13.9-25.8,24.1-34.6c10.2-8.8,22.3-15.3,36.2-19.4c13.9-4.1,29-6.1,45.2-6.1h113c16.2,0,31.3,2,45.2,6.1
			c14,4,26,10.5,36.2,19.4c10.2,8.9,18.2,20.4,24.1,34.6c5.9,14.3,8.8,31.6,8.8,52c0,28.8-5.5,51.5-16.4,68
			c-11,16.5-25.6,28.2-43.9,35.1v80.5h86.8v43.7H0.7V478.7z M245.5,363.5c10.8,0,19.9-1.9,27.2-5.6c7.3-3.7,13.3-8.8,17.8-15.1
			c4.5-6.3,7.6-13.6,9.4-21.8c1.8-8.2,2.7-16.9,2.7-25.9s-0.9-17.6-2.7-25.9c-1.8-8.2-4.9-15.5-9.4-21.8s-10.4-11.3-17.8-15.1
			c-7.4-3.7-16.4-5.6-27.2-5.6h-95.9c-10.8,0-19.9,1.9-27.2,5.6c-7.4,3.8-13.3,8.8-17.8,15.1S97,261,95.2,269.2
			c-1.8,8.3-2.7,16.9-2.7,25.9s0.9,17.6,2.7,25.9c1.8,8.3,5,15.5,9.5,21.8c4.5,6.3,10.4,11.3,17.8,15.1c7.3,3.8,16.4,5.6,27.2,5.6
			H245.5z M150.1,478.7h95v-71.5h-95V478.7z"/>
		<path class="st0" d="M614.9,152h65.7v136.4c0,12-1.1,22.4-3.4,31.3c-2.2,8.9-6,16.1-11.2,21.8c-5.3,5.7-12.3,9.9-21.1,12.6
			c-8.9,2.7-19.9,4-33.1,4h-99.5c-13.2,0-24.2-1.3-33.1-4c-8.9-2.7-15.9-6.9-21.1-12.6c-5.3-5.7-9-13-11.2-21.8
			c-2.2-8.8-3.4-19.3-3.4-31.3V152h65.7v60.8h105.8V152z M822.4,476c0,25.5-8.5,44.8-25.6,57.8c-17.1,13.1-41.1,19.6-72,19.6H587
			c-30.9,0-54.9-6.5-72-19.6c-17.1-13-25.7-32.3-25.7-57.8c0-25.8,8.5-45.2,25.7-58.3c17.1-13,41.1-19.6,72-19.6h137.7
			c30.9,0,54.9,6.5,72,19.6C813.8,430.8,822.4,450.2,822.4,476z M590.1,314.5c9.9,0,16.5-1.6,19.8-4.9c3.3-3.3,4.9-8.8,4.9-16.7
			v-36.5H509.1v36.5c0,7.8,1.6,13.4,5,16.7c3.3,3.3,9.9,4.9,19.8,4.9H590.1z M756.6,476c0-11.4-3.4-19.9-10.1-25.7
			c-6.8-5.7-17.6-8.5-32.6-8.5H597.8c-15,0-25.9,2.9-32.6,8.5c-6.8,5.7-10.1,14.3-10.1,25.7c0,11.4,3.4,19.9,10.1,25.4
			c6.8,5.5,17.6,8.3,32.6,8.3h116.1c15,0,25.9-2.8,32.6-8.3C753.3,495.9,756.6,487.4,756.6,476z M818.3,152v219.1h-65.7V152H818.3z"
			/>
		<path class="st0" d="M1055.9,152h65.7v136.4c0,12-1.1,22.4-3.4,31.3c-2.2,8.9-6,16.1-11.2,21.8c-5.3,5.7-12.3,9.9-21.1,12.6
			c-8.9,2.7-19.9,4-33.1,4h-99.5c-13.2,0-24.2-1.3-33.1-4c-8.9-2.7-15.9-6.9-21.1-12.6c-5.3-5.7-9-13-11.2-21.8
			c-2.2-8.8-3.4-19.3-3.4-31.3V152h65.7v60.8h105.8V152z M1263.3,476c0,25.5-8.5,44.8-25.6,57.8c-17.1,13.1-41.1,19.6-72,19.6H1028
			c-30.9,0-54.9-6.5-72-19.6c-17.1-13-25.7-32.3-25.7-57.8c0-25.8,8.5-45.2,25.7-58.3c17.1-13,41.1-19.6,72-19.6h137.7
			c30.9,0,54.9,6.5,72,19.6C1254.8,430.8,1263.3,450.2,1263.3,476z M1031.1,314.5c9.9,0,16.5-1.6,19.8-4.9c3.3-3.3,4.9-8.8,4.9-16.7
			v-36.5H950.1v36.5c0,7.8,1.6,13.4,5,16.7c3.3,3.3,9.9,4.9,19.8,4.9H1031.1z M1197.6,476c0-11.4-3.4-19.9-10.1-25.7
			c-6.8-5.7-17.6-8.5-32.6-8.5h-116.1c-15,0-25.9,2.9-32.6,8.5c-6.8,5.7-10.1,14.3-10.1,25.7c0,11.4,3.4,19.9,10.1,25.4
			c6.8,5.5,17.6,8.3,32.6,8.3h116.1c15,0,25.9-2.8,32.6-8.3C1194.3,495.9,1197.6,487.4,1197.6,476z M1259.3,152v219.1h-65.7V152
			H1259.3z"/>
	</g>
	<g>
		<path class="st1" d="M63.1,45.2l0.1,28.4H52.1v-28L26.5,2h12.1l19,31.9L76.5,2h12.3L63.1,45.2z"/>
		<path class="st1" d="M136.8,0.6c6.7,0,12.5,1.6,17.4,4.7c4.9,3.1,8.8,7.5,11.5,13.1c2.8,5.6,4.2,12.1,4.2,19.5
			c0,7.5-1.4,14-4.2,19.7c-2.8,5.7-6.6,10.1-11.5,13.2c-4.9,3.2-10.7,4.8-17.4,4.8c-6.6,0-12.3-1.6-17.2-4.8
			c-4.9-3.2-8.7-7.6-11.4-13.2c-2.7-5.7-4.1-12.2-4.1-19.7c0-7.4,1.4-13.9,4.1-19.5c2.7-5.6,6.5-10,11.4-13.1
			C124.4,2.2,130.2,0.6,136.8,0.6z M136.8,65.6c4.4,0,8.2-1.2,11.4-3.5c3.2-2.4,5.6-5.6,7.3-9.8c1.7-4.2,2.5-8.9,2.5-14.4
			c0-5.4-0.8-10.1-2.5-14.2c-1.7-4.1-4.1-7.3-7.3-9.6c-3.2-2.3-7-3.5-11.4-3.5c-4.4,0-8.2,1.1-11.3,3.5c-3.1,2.3-5.5,5.5-7.2,9.6
			c-1.7,4.1-2.5,8.9-2.5,14.2c0,5.4,0.8,10.2,2.5,14.4c1.7,4.2,4.1,7.4,7.2,9.8C128.6,64.4,132.4,65.6,136.8,65.6z"/>
		<path class="st1" d="M245.9,73.5v-8.1c-2.1,2.7-5,5-8.5,7.1c-3.5,2.1-7.5,3.1-12,3.1c-6.7,0-12.5-1.6-17.5-4.9
			c-4.9-3.2-8.7-7.7-11.3-13.4c-2.6-5.7-4-12.2-4-19.6c0-7.4,1.3-13.9,4-19.5c2.6-5.6,6.4-10,11.2-13.1c4.9-3.1,10.7-4.6,17.5-4.6
			c4.7,0,8.9,0.8,12.5,2.2c3.6,1.5,6.7,3.4,9.2,5.8c2.5,2.4,4.5,4.9,6,7.6c1.5,2.7,2.5,5.2,3,7.6h-11.9c-0.7-2.1-1.7-4.1-3.2-6.1
			c-1.5-2-3.5-3.7-6-5.1c-2.5-1.4-5.7-2-9.5-2c-4.5,0-8.4,1.1-11.5,3.5c-3.1,2.3-5.5,5.5-7.1,9.6c-1.6,4.1-2.4,8.8-2.4,14.2
			c0,5.3,0.8,10.1,2.4,14.3c1.6,4.2,4,7.5,7.1,9.9c3.1,2.4,7,3.5,11.5,3.5c4.1,0,7.5-0.9,10.4-2.8c2.9-1.9,5.1-4.3,6.8-7.2
			c1.6-3,2.6-6.1,3-9.4h-19.5v-9.3H257v36.7H245.9z"/>
		<path class="st1" d="M338.9,51.5c0.1,4.3-1,8.3-3.2,12c-2.2,3.7-5.4,6.6-9.5,8.8c-4.1,2.2-9.1,3.3-14.9,3.3
			c-5.8,0-10.8-1.1-14.9-3.3c-4.1-2.2-7.2-5.1-9.3-8.8c-2.1-3.7-3.2-7.7-3.2-12V2.2h11.1v47.6c0,1.7,0.2,3.4,0.7,5.2
			c0.5,1.8,1.3,3.5,2.5,5.1c1.2,1.6,2.8,2.9,5,3.9c2.1,1,4.9,1.5,8.2,1.5c3.4,0,6.2-0.5,8.3-1.5c2.2-1,3.9-2.3,5.1-3.9
			c1.2-1.6,2.1-3.3,2.6-5.1c0.5-1.8,0.8-3.6,0.8-5.2V2.2h10.9V51.5z"/>
		<path class="st1" d="M412,73.5L392,45h-13.2v28.6h-10.9V2.3H397c4.6,0,8.7,0.9,12.4,2.6c3.7,1.8,6.6,4.2,8.7,7.4
			c2.1,3.1,3.2,6.7,3.2,10.8c0,3.2-0.7,6.2-2.2,9s-3.4,5.2-5.8,7.2c-2.5,2-5.3,3.5-8.4,4.5l20.5,29.7H412z M396.1,34.8
			c2.3,0,4.4-0.5,6.5-1.4c2.1-0.9,3.8-2.2,5.1-4c1.3-1.8,2-3.9,2-6.4c0-3.7-1.3-6.4-3.9-8.2c-2.6-1.8-5.6-2.7-9-2.7h-18v22.6H396.1z
			"/>
		<path class="st1" d="M475.1,12.2v61.4l-11-0.2L464,12.2h-22.6v-10H498v10H475.1z"/>
		<path class="st1" d="M576.1,73.4V2.2h10.7v71.2H576.1z"/>
		<path class="st1" d="M665.1,24.1c-0.7-2.2-1.7-4.3-3.2-6.4c-1.5-2.1-3.5-3.8-6-5.1c-2.5-1.4-5.8-2.1-9.7-2.1
			c-4.3,0-8.1,1.1-11.2,3.4c-3.2,2.3-5.6,5.5-7.2,9.6c-1.7,4.1-2.5,8.9-2.5,14.4c0,5.5,0.8,10.4,2.5,14.6c1.7,4.2,4.1,7.4,7.2,9.7
			c3.2,2.3,6.9,3.5,11.2,3.5c3.9,0,7.1-0.8,9.7-2.3c2.6-1.5,4.6-3.5,6.1-5.9c1.5-2.4,2.6-4.8,3.3-7.2h11.5c-0.6,2.8-1.7,5.7-3.2,8.6
			c-1.5,3-3.5,5.7-6,8.2s-5.5,4.6-9.1,6.1c-3.5,1.5-7.6,2.3-12.3,2.3c-6.8,0-12.6-1.6-17.5-4.8c-4.9-3.2-8.6-7.6-11.2-13.2
			c-2.6-5.7-4-12.2-4-19.6c0-7.5,1.3-14,4-19.5c2.6-5.6,6.4-9.9,11.2-13c4.9-3.1,10.7-4.7,17.5-4.7c4.7,0,8.9,0.8,12.5,2.2
			c3.6,1.5,6.7,3.5,9.2,5.9c2.5,2.4,4.5,5,6,7.7c1.5,2.7,2.5,5.3,3,7.7H665.1z"/>
		<path class="st1" d="M702.8,73.4V2.2h49.8l0.1,10h-39v19.6l37.2,0.1v9.8h-37.2v21.8h39.8v9.9H702.8z"/>
		<path class="st1" d="M881.2,24.1c-0.7-2.2-1.7-4.3-3.2-6.4c-1.5-2.1-3.5-3.8-6-5.1c-2.5-1.4-5.8-2.1-9.7-2.1
			c-4.3,0-8.1,1.1-11.2,3.4c-3.2,2.3-5.6,5.5-7.2,9.6c-1.7,4.1-2.5,8.9-2.5,14.4c0,5.5,0.8,10.4,2.5,14.6c1.7,4.2,4.1,7.4,7.2,9.7
			c3.2,2.3,6.9,3.5,11.2,3.5c3.9,0,7.1-0.8,9.7-2.3c2.6-1.5,4.6-3.5,6.1-5.9c1.5-2.4,2.6-4.8,3.3-7.2h11.5c-0.6,2.8-1.7,5.7-3.2,8.6
			c-1.5,3-3.5,5.7-6,8.2s-5.5,4.6-9.1,6.1c-3.5,1.5-7.6,2.3-12.3,2.3c-6.8,0-12.6-1.6-17.5-4.8c-4.9-3.2-8.6-7.6-11.2-13.2
			c-2.6-5.7-4-12.2-4-19.6c0-7.5,1.3-14,4-19.5c2.6-5.6,6.4-9.9,11.2-13c4.9-3.1,10.7-4.7,17.5-4.7c4.7,0,8.9,0.8,12.5,2.2
			c3.6,1.5,6.7,3.5,9.2,5.9c2.5,2.4,4.5,5,6,7.7c1.5,2.7,2.5,5.3,3,7.7H881.2z"/>
		<path class="st1" d="M963,73.5L943,45h-13.2v28.6h-10.9V2.3H948c4.6,0,8.7,0.9,12.4,2.6c3.7,1.8,6.6,4.2,8.7,7.4
			c2.1,3.1,3.2,6.7,3.2,10.8c0,3.2-0.7,6.2-2.2,9s-3.4,5.2-5.8,7.2c-2.5,2-5.3,3.5-8.4,4.5l20.5,29.7H963z M947.1,34.8
			c2.3,0,4.4-0.5,6.5-1.4c2.1-0.9,3.8-2.2,5.1-4c1.3-1.8,2-3.9,2-6.4c0-3.7-1.3-6.4-3.9-8.2c-2.6-1.8-5.6-2.7-9-2.7h-18v22.6H947.1z
			"/>
		<path class="st1" d="M999.4,73.4V2.2h49.8l0.1,10h-39v19.6l37.2,0.1v9.8h-37.2v21.8h39.8v9.9H999.4z"/>
		<path class="st1" d="M1130.4,73.6l-6.9-17.2h-33l-6.8,17.2h-11.1l28.1-71.5h12.5l28.3,71.5H1130.4z M1107,14.4l-12.4,31.8h24.9
			L1107,14.4z"/>
		<path class="st1" d="M1221.5,73.5V25.8L1205,73.5h-12.3l-16.4-47.7v47.8h-10.9V2h13l20.4,57.6L1219.1,2h13v71.5H1221.5z"/>
	</g>
</g>
</svg>
